<svg width="20" height="20" viewBox="0 0 20 20" fill="none" xmlns="http://www.w3.org/2000/svg">
<path d="M9.99926 19.9986C9.23026 19.9986 8.46226 19.7066 7.87526 19.1236L7.14526 18.3936C6.86226 18.1116 6.48326 17.9556 6.08126 17.9546H5.05426C3.39426 17.9546 2.04326 16.6036 2.04326 14.9436V13.9156C2.04226 13.5146 1.88626 13.1356 1.60326 12.8506L0.88526 12.1336C-0.29074 10.9646 -0.29574 9.05364 0.87426 7.87664L1.60426 7.14564C1.88626 6.86264 2.04226 6.48364 2.04326 6.08164V5.05564C2.04326 3.39464 3.39426 2.04364 5.05426 2.04364H6.08226C6.48326 2.04364 6.86126 1.88764 7.14626 1.60264L7.86526 0.885637C9.03426 -0.290363 10.9443 -0.296363 12.1223 0.874637L12.8523 1.60464C13.1363 1.88764 13.5143 2.04364 13.9153 2.04364H14.9433C16.6033 2.04364 17.9543 3.39464 17.9543 5.05564V6.08264C17.9553 6.48364 18.1113 6.86264 18.3943 7.14764L19.1123 7.86564C19.6813 8.43164 19.9963 9.18564 19.9993 9.99064C20.0013 10.7906 19.6933 11.5436 19.1323 12.1126C19.1223 12.1226 19.1133 12.1336 19.1033 12.1426L18.3933 12.8526C18.1113 13.1356 17.9553 13.5146 17.9543 13.9166V14.9436C17.9543 16.6036 16.6033 17.9546 14.9433 17.9546H13.9153C13.5143 17.9556 13.1353 18.1116 12.8513 18.3946L12.1323 19.1126C11.5463 19.7026 10.7723 19.9986 9.99926 19.9986Z" fill="#293688"/>
<path fill-rule="evenodd" clip-rule="evenodd" d="M8.04276 8.49687C7.87776 8.66187 7.66376 8.75087 7.42676 8.75087C7.20476 8.75087 6.98676 8.65987 6.81176 8.49587C6.64576 8.33087 6.55176 8.10487 6.55176 7.87587C6.55176 7.65787 6.64376 7.43387 6.80576 7.26087C6.89476 7.17087 7.00076 7.10287 7.10676 7.06687C7.40876 6.92887 7.80976 7.00987 8.04776 7.25987C8.13276 7.34487 8.19776 7.43787 8.24076 7.53487C8.28776 7.63887 8.31176 7.75687 8.31176 7.87587C8.31176 8.11387 8.21676 8.33487 8.04276 8.49687ZM13.1905 7.25577C12.8495 6.91577 12.2945 6.91577 11.9535 7.25577L6.81346 12.3958C6.47246 12.7368 6.47246 13.2918 6.81346 13.6338C6.97946 13.7988 7.19846 13.8898 7.43246 13.8898C7.66646 13.8898 7.88546 13.7988 8.05046 13.6338L13.1905 8.49377C13.5315 8.15177 13.5315 7.59777 13.1905 7.25577ZM12.9058 12.2099C12.5818 12.0739 12.1978 12.1479 11.9418 12.4039C11.8888 12.4659 11.8138 12.5619 11.7628 12.6749C11.7088 12.7969 11.7018 12.9279 11.7018 13.0159C11.7018 13.1039 11.7088 13.2339 11.7628 13.3559C11.8128 13.4679 11.8728 13.5589 11.9518 13.6379C12.1328 13.8059 12.3428 13.8909 12.5768 13.8909C12.7988 13.8909 13.0168 13.8009 13.1958 13.6339C13.3548 13.4749 13.4418 13.2549 13.4418 13.0159C13.4418 12.7759 13.3548 12.5569 13.1948 12.3969C13.1068 12.3099 13.0008 12.2419 12.9058 12.2099Z" fill="white"/>
</svg>
