<svg width="14" height="10" viewBox="0 0 14 10" fill="none" xmlns="http://www.w3.org/2000/svg">
<path d="M1 5L0.646446 5.35355C0.451184 5.15829 0.451184 4.84171 0.646446 4.64645L1 5ZM4.64645 0.646447C4.84171 0.451184 5.15829 0.451184 5.35355 0.646447C5.54882 0.841709 5.54882 1.15829 5.35355 1.35355L4.64645 0.646447ZM5.35355 8.64645C5.54882 8.84171 5.54882 9.15829 5.35355 9.35355C5.15829 9.54882 4.84171 9.54882 4.64645 9.35355L5.35355 8.64645ZM13.5 4.5C13.7761 4.5 14 4.72386 14 5C14 5.27614 13.7761 5.5 13.5 5.5V4.5ZM0.646446 4.64645L4.64645 0.646447L5.35355 1.35355L1.35355 5.35355L0.646446 4.64645ZM1.35355 4.64645L5.35355 8.64645L4.64645 9.35355L0.646446 5.35355L1.35355 4.64645ZM1 4.5H13.5V5.5H1V4.5Z" fill="black"/>
</svg>
