<svg width="14" height="10" viewBox="0 0 14 10" fill="none" xmlns="http://www.w3.org/2000/svg">
<path d="M13 5L13.3536 4.64645C13.5488 4.84171 13.5488 5.15829 13.3536 5.35356L13 5ZM9.35355 9.35355C9.15829 9.54882 8.84171 9.54882 8.64645 9.35355C8.45118 9.15829 8.45118 8.84171 8.64645 8.64645L9.35355 9.35355ZM8.64645 1.35355C8.45119 1.15829 8.45119 0.841711 8.64645 0.646448C8.84171 0.451186 9.15829 0.451186 9.35356 0.646448L8.64645 1.35355ZM0.500001 5.5C0.223858 5.5 6.511e-07 5.27614 6.99382e-07 5C7.47665e-07 4.72386 0.223858 4.5 0.500001 4.5L0.500001 5.5ZM13.3536 5.35356L9.35355 9.35355L8.64645 8.64645L12.6464 4.64645L13.3536 5.35356ZM12.6464 5.35356L8.64645 1.35355L9.35356 0.646448L13.3536 4.64645L12.6464 5.35356ZM13 5.5L0.500001 5.5L0.500001 4.5L13 4.5L13 5.5Z" fill="black"/>
</svg>
