<svg width="20" height="20" viewBox="0 0 20 20" fill="none" xmlns="http://www.w3.org/2000/svg">
<path fill-rule="evenodd" clip-rule="evenodd" d="M18.8889 0L19.8827 17.8891C19.944 18.9919 19.0996 19.9357 17.9967 19.9969C17.9413 19.9995 17.9413 19.9995 17.8858 20H2C0.89543 20 0 19.1046 0 18C0.00051341 17.9445 0.000513296 17.9445 0.00307918 17.8891L0.996916 0H18.8889ZM2.88889 2L2 18H17.8858L16.9969 2H2.88889ZM4.9429 4H6.9429V6.5C6.9429 7.74837 8.32804 9 9.9429 9C11.5578 9 12.9429 7.74837 12.9429 6.5V4H14.9429V6.5C14.9429 8.9007 12.6197 11 9.9429 11C7.26614 11 4.9429 8.9007 4.9429 6.5V4Z" fill="white"/>
</svg>
