<svg width="32" height="22" viewBox="0 0 32 22" fill="none" xmlns="http://www.w3.org/2000/svg">
<path fill-rule="evenodd" clip-rule="evenodd" d="M27.3881 16.1333H29.0909V11.0516L25.0536 8.33762L22.3738 2.93333H2.90909V16.1333H4.61194C5.21097 14.4244 6.82732 13.2 8.72727 13.2C10.6272 13.2 12.2436 14.4244 12.8426 16.1333H19.1574C19.7564 14.4244 21.3728 13.2 23.2727 13.2C25.1727 13.2 26.789 14.4244 27.3881 16.1333ZM27.3881 19.0667C26.789 20.7756 25.1727 22 23.2727 22C21.3728 22 19.7564 20.7756 19.1574 19.0667H12.8426C12.2436 20.7756 10.6272 22 8.72727 22C6.82732 22 5.21097 20.7756 4.61194 19.0667H2.90909C1.30244 19.0667 0 17.7534 0 16.1333V2.93333C0 1.3133 1.30244 0 2.90909 0H22.3738C23.4757 0 24.483 0.62774 24.9757 1.62151L27.3101 6.32905L32 9.48173V16.1333C32 17.7534 30.6976 19.0667 29.0909 19.0667H27.3881ZM8.72727 19.0667C9.5306 19.0667 10.1818 18.41 10.1818 17.6C10.1818 16.79 9.5306 16.1333 8.72727 16.1333C7.92395 16.1333 7.27273 16.79 7.27273 17.6C7.27273 18.41 7.92395 19.0667 8.72727 19.0667ZM23.2727 19.0667C24.0761 19.0667 24.7273 18.41 24.7273 17.6C24.7273 16.79 24.0761 16.1333 23.2727 16.1333C22.4694 16.1333 21.8182 16.79 21.8182 17.6C21.8182 18.41 22.4694 19.0667 23.2727 19.0667Z" fill="#139AD6"/>
</svg>
