<svg width="31" height="31" viewBox="0 0 31 31" fill="none" xmlns="http://www.w3.org/2000/svg">
<path d="M26.1574 3.32141H4.84486C4.00411 3.32141 3.32254 4.01608 3.32254 4.87299V21.3291C3.32254 22.186 4.00411 22.8806 4.84486 22.8806H20.8685C21.3254 22.8806 21.7581 23.0898 22.0472 23.4503L24.9787 27.1058C25.8843 28.2351 27.6797 27.5824 27.6797 26.1239V4.87299C27.6797 4.01607 26.9981 3.32141 26.1574 3.32141Z" stroke="#38B2AC" stroke-width="2" stroke-linecap="round" stroke-linejoin="round"/>
<path d="M15.4994 14.3929V13.4537C15.4994 12.6652 15.9262 11.9347 16.6109 11.5435C17.2902 11.1553 17.7137 10.4304 17.7137 9.64796C17.7137 8.59974 16.864 7.75 15.8158 7.75H15.1831C14.1349 7.75 13.2852 8.59974 13.2852 9.64796" stroke="#38B2AC" stroke-width="2" stroke-linecap="round" stroke-linejoin="round"/>
<path d="M16.6088 17.7143C16.6088 18.3257 16.1131 18.8214 15.5017 18.8214C14.8902 18.8214 14.3945 18.3257 14.3945 17.7143C14.3945 17.1028 14.8902 16.6071 15.5017 16.6071C16.1131 16.6071 16.6088 17.1028 16.6088 17.7143Z" fill="#38B2AC"/>
</svg>
