<svg width="22" height="20" viewBox="0 0 22 20" fill="none" xmlns="http://www.w3.org/2000/svg">
<path d="M7.2897 1.59998H4.33073C2.85797 1.59998 1.66406 2.67449 1.66406 3.99998V6.39998C1.66406 13.0274 7.6336 18.4 14.9974 18.4H17.6641C19.1368 18.4 20.3307 17.3255 20.3307 16V14.3416C20.3307 13.8871 20.0454 13.4716 19.5937 13.2683L16.3724 11.8187C15.6467 11.4922 14.7678 11.8198 14.5112 12.5126L14.1142 13.5845C13.8571 14.2789 13.0656 14.6923 12.2682 14.5487C9.07645 13.9742 6.58159 11.7288 5.94324 8.85627C5.78375 8.13857 6.24303 7.42629 7.01454 7.19483L8.49272 6.75138C9.15368 6.55309 9.53358 5.93024 9.3646 5.32192L8.58322 2.50893C8.43483 1.97473 7.90152 1.59998 7.2897 1.59998Z" stroke="#38B2AC" stroke-width="2"/>
</svg>
