<svg width="26" height="24" viewBox="0 0 26 24" fill="none" xmlns="http://www.w3.org/2000/svg">
<path fill-rule="evenodd" clip-rule="evenodd" d="M20.4639 23.0883C22.8797 23.0883 24.8355 21.1313 24.8355 18.7168V15.2381C23.2379 15.2381 21.9495 13.9497 21.9495 12.3534C21.9495 10.7557 23.2379 9.46862 24.8355 9.46862L24.8329 5.98606C24.8329 3.57159 22.8771 1.6145 20.4626 1.6145H5.37285C2.95838 1.6145 1.00129 3.57159 1.00129 5.98606L1 9.58071C2.59633 9.58071 3.88474 10.7557 3.88474 12.3534C3.88474 13.9497 2.59633 15.2381 1 15.2381V18.7168C1 21.1313 2.9558 23.0883 5.37027 23.0883H20.4639Z" stroke="white" stroke-width="1.5" stroke-linecap="round" stroke-linejoin="round"/>
<path fill-rule="evenodd" clip-rule="evenodd" d="M12.9189 14.6333L15.1607 15.8122C15.3707 15.9217 15.6168 15.7439 15.5769 15.5107L15.1478 13.0125L16.9632 11.246C17.1333 11.0798 17.0392 10.7925 16.8047 10.7577L14.2975 10.3931L13.1753 8.12038C13.0709 7.90779 12.7681 7.90779 12.6625 8.12038L11.5403 10.3931L9.03435 10.7577C8.79986 10.7925 8.7058 11.0798 8.87587 11.246L10.6899 13.0125L10.2609 15.5107C10.221 15.7439 10.4671 15.9217 10.6771 15.8122L12.9189 14.6333Z" stroke="#38B2AC" stroke-width="1.5" stroke-linecap="round" stroke-linejoin="round"/>
</svg>
