<svg width="26" height="24" viewBox="0 0 26 24" fill="none" xmlns="http://www.w3.org/2000/svg">
<path fill-rule="evenodd" clip-rule="evenodd" d="M20.6944 23.0883C23.1102 23.0883 25.066 21.1313 25.066 18.7168V15.2381C23.4683 15.2381 22.1799 13.9497 22.1799 12.3534C22.1799 10.7557 23.4683 9.46862 25.066 9.46862L25.0634 5.98606C25.0634 3.57159 23.1076 1.6145 20.6931 1.6145H5.60331C3.18884 1.6145 1.23176 3.57159 1.23176 5.98606L1.23047 9.58071C2.8268 9.58071 4.11521 10.7557 4.11521 12.3534C4.11521 13.9497 2.8268 15.2381 1.23047 15.2381V18.7168C1.23047 21.1313 3.18627 23.0883 5.60074 23.0883H20.6944Z" stroke="black" stroke-width="1.5" stroke-linecap="round" stroke-linejoin="round"/>
<path fill-rule="evenodd" clip-rule="evenodd" d="M13.1494 14.6333L15.3912 15.8122C15.6012 15.9217 15.8473 15.7439 15.8073 15.5107L15.3783 13.0125L17.1937 11.246C17.3637 11.0798 17.2697 10.7925 17.0352 10.7577L14.5279 10.3931L13.4057 8.12038C13.3014 7.90779 12.9986 7.90779 12.893 8.12038L11.7708 10.3931L9.26482 10.7577C9.03033 10.7925 8.93627 11.0798 9.10634 11.246L10.9204 13.0125L10.4914 15.5107C10.4514 15.7439 10.6975 15.9217 10.9075 15.8122L13.1494 14.6333Z" stroke="#38B2AC" stroke-width="1.5" stroke-linecap="round" stroke-linejoin="round"/>
</svg>
