<svg width="20" height="19" viewBox="0 0 20 19" fill="none" xmlns="http://www.w3.org/2000/svg">
<path fill-rule="evenodd" clip-rule="evenodd" d="M11.0024 0.657125C11.9749 0.162814 12.8232 -1.34766e-06 14.1393 1.53053e-05C17.5072 0.0144991 20 2.96416 20 6.7215C20 9.58939 18.4602 12.3597 15.592 15.0386C14.0865 16.4447 12.1643 17.8362 10.7876 18.5765L10 19L9.21237 18.5765C7.83575 17.8362 5.91354 16.4447 4.40804 15.0386C1.53985 12.3597 0 9.58939 0 6.7215C0 2.92396 2.46949 0 5.86777 0C7.13662 0 8.02847 0.178213 9.01983 0.687392C9.36498 0.864669 9.68927 1.07495 9.99088 1.31766C10.3046 1.06053 10.6424 0.840135 11.0024 0.657125ZM14.3761 13.6347C16.8965 11.2807 18.1818 8.96835 18.1818 6.7215C18.1818 3.95458 16.4438 1.89804 14.1355 1.8881C13.0791 1.88809 12.4962 1.99996 11.8017 2.35297C11.3746 2.57011 10.9956 2.86325 10.665 3.23577L10.0021 3.98265L9.33321 3.24164C9.00989 2.88347 8.63637 2.59685 8.21376 2.37979C7.4983 2.01232 6.87662 1.88809 5.86777 1.88809C3.53058 1.88809 1.81818 3.91564 1.81818 6.7215C1.81818 8.96835 3.10347 11.2807 5.62389 13.6347C6.99802 14.9181 8.76458 16.2007 10 16.8736C11.2354 16.2007 13.002 14.9181 14.3761 13.6347Z" fill="#286864"/>
</svg>
