<svg width="21" height="18" viewBox="0 0 21 18" fill="none" xmlns="http://www.w3.org/2000/svg">
<path d="M16.6476 12.7354C16.6476 13.0318 16.5299 13.3161 16.3203 13.5257C16.1107 13.7353 15.8264 13.853 15.53 13.853H5.47116C5.17474 13.853 4.89047 13.7353 4.68087 13.5257C4.47127 13.3161 4.35352 13.0318 4.35352 12.7354V6.58831C4.35352 6.29189 4.47127 6.00761 4.68087 5.79801C4.89047 5.58841 5.17474 5.47066 5.47116 5.47066H7.70646L8.8241 3.79419H12.177L13.2947 5.47066H15.53C15.8264 5.47066 16.1107 5.58841 16.3203 5.79801C16.5299 6.00761 16.6476 6.29189 16.6476 6.58831V12.7354Z" stroke="#D0D0D0" stroke-width="1.5" stroke-linecap="round" stroke-linejoin="round"/>
<path d="M10.5006 11.6177C11.7351 11.6177 12.7359 10.6169 12.7359 9.38242C12.7359 8.14791 11.7351 7.14713 10.5006 7.14713C9.26606 7.14713 8.26528 8.14791 8.26528 9.38242C8.26528 10.6169 9.26606 11.6177 10.5006 11.6177Z" stroke="#D0D0D0" stroke-width="1.5" stroke-linecap="round" stroke-linejoin="round"/>
<path d="M0.25 4.91176C0.25 5.32598 0.585786 5.66176 1 5.66176C1.41421 5.66176 1.75 5.32598 1.75 4.91176H0.25ZM4.63235 2.02941C5.04657 2.02941 5.38235 1.69363 5.38235 1.27941C5.38235 0.865198 5.04657 0.529412 4.63235 0.529412V2.02941ZM1.75 13.2941C1.75 12.8799 1.41421 12.5441 1 12.5441C0.585786 12.5441 0.25 12.8799 0.25 13.2941H1.75ZM4.63235 17.6765C5.04657 17.6765 5.38235 17.3407 5.38235 16.9265C5.38235 16.5123 5.04657 16.1765 4.63235 16.1765V17.6765ZM19.25 4.63235C19.25 5.04657 19.5858 5.38235 20 5.38235C20.4142 5.38235 20.75 5.04657 20.75 4.63235H19.25ZM16.3676 0.25C15.9534 0.25 15.6176 0.585786 15.6176 1C15.6176 1.41421 15.9534 1.75 16.3676 1.75V0.25ZM20.75 13.5735C20.75 13.1593 20.4142 12.8235 20 12.8235C19.5858 12.8235 19.25 13.1593 19.25 13.5735H20.75ZM16.3676 16.4559C15.9534 16.4559 15.6176 16.7917 15.6176 17.2059C15.6176 17.6201 15.9534 17.9559 16.3676 17.9559V16.4559ZM1.75 4.91176V2.39706H0.25V4.91176H1.75ZM2.11765 2.02941H4.63235V0.529412H2.11765V2.02941ZM1.75 2.39706C1.75 2.19401 1.9146 2.02941 2.11765 2.02941V0.529412C1.08617 0.529412 0.25 1.36559 0.25 2.39706H1.75ZM0.25 13.2941V15.8088H1.75V13.2941H0.25ZM2.11765 17.6765H4.63235V16.1765H2.11765V17.6765ZM0.25 15.8088C0.25 16.8403 1.08617 17.6765 2.11765 17.6765V16.1765C1.9146 16.1765 1.75 16.0119 1.75 15.8088H0.25ZM20.75 4.63235V2.11765H19.25V4.63235H20.75ZM18.8824 0.25H16.3676V1.75H18.8824V0.25ZM20.75 2.11765C20.75 1.08617 19.9138 0.25 18.8824 0.25V1.75C19.0854 1.75 19.25 1.9146 19.25 2.11765H20.75ZM19.25 13.5735V16.0882H20.75V13.5735H19.25ZM18.8824 16.4559H16.3676V17.9559H18.8824V16.4559ZM19.25 16.0882C19.25 16.2913 19.0854 16.4559 18.8824 16.4559V17.9559C19.9138 17.9559 20.75 17.1197 20.75 16.0882H19.25Z" fill="#D0D0D0"/>
</svg>
