<svg width="54" height="54" viewBox="0 0 54 54" fill="none" xmlns="http://www.w3.org/2000/svg">
<g clip-path="url(#clip0)">
<path d="M27 53.999C41.9117 53.999 54 41.9107 54 26.999C54 12.0873 41.9117 -0.000976562 27 -0.000976562C12.0883 -0.000976562 0 12.0873 0 26.999C0 41.9107 12.0883 53.999 27 53.999Z" fill="#DC4E41"/>
<path d="M9.40137 28.2085C9.30559 32.854 12.5053 37.2873 16.9068 38.7331C21.0527 40.126 26.1501 39.084 28.909 35.5334C30.9232 33.0456 31.3809 29.7289 31.1629 26.6303C27.6123 26.5986 24.0618 26.6091 20.5165 26.6144C20.5107 27.8793 20.5165 29.1393 20.5218 30.4042C22.6477 30.4629 24.7741 30.436 26.9 30.4788C26.3634 32.3178 25.1409 34.0294 23.2854 34.6935C19.7031 36.2722 15.1322 34.2098 14.005 30.4518C12.6444 26.8532 14.8718 22.5104 18.5494 21.4636C20.8298 20.6612 23.1791 21.5646 25.1303 22.7501C26.1189 21.825 27.0439 20.8364 27.9526 19.8372C25.7357 17.9823 22.8869 16.845 19.9582 17.0948C14.212 17.1631 9.18334 22.468 9.40137 28.2085Z" fill="#DC4E41"/>
<path d="M38.0726 23.4238C38.0621 24.4817 38.051 25.5449 38.0457 26.6023C36.9825 26.6129 35.9251 26.6182 34.8672 26.6235C34.8672 27.6814 34.8672 28.7335 34.8672 29.7914C35.9251 29.7967 36.9883 29.802 38.0457 29.8131C38.0563 30.871 38.0563 31.9284 38.0669 32.9916C39.1195 32.9916 40.1774 32.9863 41.2348 32.9916C41.2406 31.9284 41.2454 30.871 41.2565 29.8078C42.3139 29.8025 43.3771 29.7972 44.435 29.7919C44.435 28.734 44.435 27.6819 44.435 26.624C43.3775 26.6187 42.3144 26.6134 41.2565 26.6028C41.2507 25.5449 41.2406 24.4817 41.2348 23.4243C40.1774 23.4238 39.1248 23.4238 38.0726 23.4238Z" fill="#DC4E41"/>
<path d="M9.40137 28.208C9.18334 22.4675 14.2115 17.1626 19.9577 17.0938C22.8864 16.844 25.7357 17.9813 27.9521 19.8363C27.043 20.8359 26.1179 21.824 25.1298 22.7491C23.1786 21.5637 20.8294 20.6602 18.549 21.4626C14.8709 22.5099 12.6434 26.8527 14.0045 30.4509C15.1317 34.2089 19.7026 36.2712 23.285 34.6926C25.1399 34.0284 26.3629 32.3169 26.8995 30.4778C24.7736 30.4355 22.6472 30.4619 20.5213 30.4032C20.516 29.1384 20.5107 27.8783 20.516 26.6135C24.0613 26.6082 27.6119 26.5976 31.1624 26.6293C31.3804 29.7284 30.9232 33.0451 28.9085 35.5324C26.1497 39.083 21.0527 40.125 16.9063 38.7321C12.5058 37.2868 9.30559 32.8535 9.40137 28.208Z" fill="white"/>
<path d="M38.0726 23.4238C39.1253 23.4238 40.1774 23.4238 41.2348 23.4238C41.2406 24.4817 41.2507 25.5449 41.2565 26.6023C42.3139 26.6129 43.3771 26.6182 44.435 26.6235C44.435 27.6814 44.435 28.7335 44.435 29.7914C43.3775 29.7967 42.3144 29.802 41.2565 29.8073C41.2459 30.8705 41.2406 31.9279 41.2348 32.9911C40.1774 32.9858 39.119 32.9911 38.0669 32.9911C38.0568 31.9279 38.0568 30.8705 38.0457 29.8126C36.9883 29.8015 35.9251 29.7967 34.8672 29.791C34.8672 28.7331 34.8672 27.6809 34.8672 26.623C35.9251 26.6177 36.983 26.6124 38.0457 26.6019C38.051 25.5449 38.0616 24.4817 38.0726 23.4238Z" fill="white"/>
</g>
<defs>
<clipPath id="clip0">
<rect width="54" height="54" fill="white"/>
</clipPath>
</defs>
</svg>
