<svg width="28" height="25" viewBox="0 0 28 25" fill="none" xmlns="http://www.w3.org/2000/svg">
<path fill-rule="evenodd" clip-rule="evenodd" d="M13.5365 23.9058C10.5927 22.1847 7.85408 20.159 5.36974 17.865C3.62313 16.213 2.29346 14.199 1.48256 11.9773C0.0233379 7.66747 1.72781 2.73355 6.49788 1.2734C9.00483 0.506686 11.7428 0.944895 13.8553 2.45094C15.9686 0.946729 18.7056 0.508673 21.2127 1.2734C25.9828 2.73355 27.6995 7.66747 26.2403 11.9773C25.4294 14.199 24.0998 16.213 22.3531 17.865C19.8688 20.159 17.1302 22.1847 14.1864 23.9058L13.8676 24.0942L13.5365 23.9058Z" stroke="black" stroke-width="1.5" stroke-linecap="round" stroke-linejoin="round"/>
<path d="M18.9297 6.12488C20.3745 6.56332 21.401 7.79556 21.5293 9.24538" stroke="#38B2AC" stroke-width="1.5" stroke-linecap="round" stroke-linejoin="round"/>
</svg>
