<svg width="28" height="25" viewBox="0 0 28 25" fill="none" xmlns="http://www.w3.org/2000/svg">
<path fill-rule="evenodd" clip-rule="evenodd" d="M13.5599 23.9058C10.6161 22.1847 7.87752 20.159 5.39318 17.865C3.64657 16.213 2.31689 14.199 1.506 11.9773C0.0467754 7.66747 1.75125 2.73355 6.52132 1.2734C9.02827 0.506686 11.7662 0.944895 13.8787 2.45094C15.9921 0.946729 18.7291 0.508673 21.2362 1.2734C26.0062 2.73355 27.723 7.66747 26.2638 11.9773C25.4529 14.199 24.1232 16.213 22.3766 17.865C19.8922 20.159 17.1537 22.1847 14.2098 23.9058L13.891 24.0942L13.5599 23.9058Z" stroke="white" stroke-width="1.5" stroke-linecap="round" stroke-linejoin="round"/>
<path d="M18.9541 6.12488C20.3989 6.56332 21.4254 7.79556 21.5537 9.24538" stroke="#38B2AC" stroke-width="1.5" stroke-linecap="round" stroke-linejoin="round"/>
</svg>
