<svg width="22" height="22" viewBox="0 0 22 22" fill="none" xmlns="http://www.w3.org/2000/svg">
<path fill-rule="evenodd" clip-rule="evenodd" d="M6.6 0H15.4C19.0451 0 22 2.95492 22 6.6V15.4C22 19.0451 19.0451 22 15.4 22H6.6C2.95492 22 0 19.0451 0 15.4V6.6C0 2.95492 2.95492 0 6.6 0ZM6.6 2.2C4.16995 2.2 2.2 4.16995 2.2 6.6V15.4C2.2 17.8301 4.16995 19.8 6.6 19.8H15.4C17.8301 19.8 19.8 17.8301 19.8 15.4V6.6C19.8 4.16995 17.8301 2.2 15.4 2.2H6.6ZM11 16.5C7.96243 16.5 5.5 14.0376 5.5 11C5.5 7.96243 7.96243 5.5 11 5.5C14.0376 5.5 16.5 7.96243 16.5 11C16.5 14.0376 14.0376 16.5 11 16.5ZM11 14.3C12.8225 14.3 14.3 12.8225 14.3 11C14.3 9.17746 12.8225 7.7 11 7.7C9.17746 7.7 7.7 9.17746 7.7 11C7.7 12.8225 9.17746 14.3 11 14.3ZM16.5 6.6C15.8925 6.6 15.4 6.10751 15.4 5.5C15.4 4.89249 15.8925 4.4 16.5 4.4C17.1075 4.4 17.6 4.89249 17.6 5.5C17.6 6.10751 17.1075 6.6 16.5 6.6Z" fill="#38B2AC"/>
</svg>
