<svg width="25" height="25" viewBox="0 0 25 25" fill="none" xmlns="http://www.w3.org/2000/svg">
<path fill-rule="evenodd" clip-rule="evenodd" d="M7.5 0H17.5C21.6421 0 25 3.35786 25 7.5V17.5C25 21.6421 21.6421 25 17.5 25H7.5C3.35786 25 0 21.6421 0 17.5V7.5C0 3.35786 3.35786 0 7.5 0ZM7.5 2.5C4.73858 2.5 2.5 4.73858 2.5 7.5V17.5C2.5 20.2614 4.73858 22.5 7.5 22.5H17.5C20.2614 22.5 22.5 20.2614 22.5 17.5V7.5C22.5 4.73858 20.2614 2.5 17.5 2.5H7.5ZM12.5 18.75C9.04822 18.75 6.25 15.9518 6.25 12.5C6.25 9.04822 9.04822 6.25 12.5 6.25C15.9518 6.25 18.75 9.04822 18.75 12.5C18.75 15.9518 15.9518 18.75 12.5 18.75ZM12.5 16.25C14.5711 16.25 16.25 14.5711 16.25 12.5C16.25 10.4289 14.5711 8.75 12.5 8.75C10.4289 8.75 8.75 10.4289 8.75 12.5C8.75 14.5711 10.4289 16.25 12.5 16.25ZM18.75 7.5C18.0596 7.5 17.5 6.94036 17.5 6.25C17.5 5.55964 18.0596 5 18.75 5C19.4404 5 20 5.55964 20 6.25C20 6.94036 19.4404 7.5 18.75 7.5Z" fill="#38B2AC"/>
</svg>
