<svg width="23" height="34" viewBox="0 0 23 34" fill="none" xmlns="http://www.w3.org/2000/svg">
<path fill-rule="evenodd" clip-rule="evenodd" d="M5.80199 1.73895C9.39142 -0.354617 13.8034 -0.318025 17.3592 1.83481C20.8799 4.03148 23.0198 7.95191 22.9999 12.1692C22.9179 16.3588 20.6234 20.297 17.7552 23.3415C16.0998 25.1066 14.2479 26.6674 12.2375 27.992C12.0304 28.1121 11.8036 28.1926 11.5682 28.2294C11.3417 28.2197 11.1211 28.1525 10.9263 28.0339C7.85689 26.0436 5.16408 23.503 2.97742 20.5344C1.14769 18.0565 0.108157 15.0627 1.91164e-06 11.9597C-0.00237532 7.73434 2.21256 3.83252 5.80199 1.73895ZM7.87494 13.7083C8.47873 15.2025 9.90391 16.1772 11.485 16.1772C12.5209 16.1846 13.5166 15.7682 14.2503 15.0205C14.9841 14.2729 15.3949 13.2562 15.3912 12.197C15.3967 10.5803 14.4485 9.11963 12.9894 8.49701C11.5302 7.8744 9.84783 8.21266 8.72784 9.35386C7.60786 10.4951 7.27115 12.2141 7.87494 13.7083Z" fill="#38B2AC"/>
<ellipse cx="11.4995" cy="31.5277" rx="8.21433" ry="1.64914" fill="#2C7A7B"/>
</svg>
