<svg width="24" height="34" viewBox="0 0 24 34" fill="none" xmlns="http://www.w3.org/2000/svg">
<path fill-rule="evenodd" clip-rule="evenodd" d="M5.87763 1.55906C9.51386 -0.55375 13.9834 -0.516822 17.5855 1.65579C21.1522 3.87265 23.3199 7.82909 23.2997 12.0851C23.2167 16.3132 20.8923 20.2876 17.9867 23.3601C16.3097 25.1414 14.4337 26.7165 12.397 28.0533C12.1872 28.1746 11.9575 28.2558 11.719 28.2929C11.4896 28.2831 11.2661 28.2153 11.0688 28.0955C7.95932 26.087 5.23141 23.5231 3.01624 20.5272C1.16265 18.0265 0.109567 15.0052 1.93657e-06 11.8737C-0.00240629 7.60952 2.2414 3.67186 5.87763 1.55906ZM7.97969 13.6385C8.59135 15.1464 10.0351 16.13 11.6369 16.13C12.6862 16.1375 13.6949 15.7172 14.4382 14.9627C15.1815 14.2082 15.5977 13.1822 15.5939 12.1133C15.5995 10.4817 14.639 9.00763 13.1608 8.3793C11.6826 7.75097 9.9783 8.09234 8.84371 9.24402C7.70912 10.3957 7.36803 12.1305 7.97969 13.6385Z" fill="#38B2AC"/>
<ellipse cx="11.6496" cy="31.6214" rx="8.32143" ry="1.66429" fill="#2C7A7B"/>
</svg>
