<svg width="31" height="45" viewBox="0 0 31 45" fill="none" xmlns="http://www.w3.org/2000/svg">
<path fill-rule="evenodd" clip-rule="evenodd" d="M7.82002 2.07428C12.6579 -0.736749 18.6045 -0.687617 23.397 2.20298C28.1424 5.15245 31.0265 10.4164 30.9996 16.0789C30.8892 21.7043 27.7966 26.9921 23.9308 31.0799C21.6996 33.4499 19.2036 35.5455 16.4939 37.3241C16.2148 37.4855 15.9091 37.5935 15.5919 37.6429C15.2865 37.6299 14.9892 37.5396 14.7267 37.3803C10.5897 34.708 6.96024 31.2968 4.01302 27.3109C1.54687 23.9837 0.145776 19.964 2.57655e-06 15.7976C-0.0032015 10.1243 2.98212 4.88531 7.82002 2.07428ZM10.6143 18.1456C11.4281 20.1518 13.349 21.4605 15.48 21.4605C16.8761 21.4705 18.2182 20.9113 19.2071 19.9075C20.1961 18.9036 20.7498 17.5385 20.7448 16.1164C20.7523 13.9456 19.4743 11.9844 17.5076 11.1484C15.5408 10.3124 13.2734 10.7666 11.7638 12.2989C10.2543 13.8312 9.80047 16.1393 10.6143 18.1456Z" fill="#38B2AC"/>
<ellipse cx="15.5011" cy="42.0715" rx="11.0714" ry="2.21429" fill="#2C7A7B"/>
</svg>
