<svg width="241" height="49" viewBox="0 0 241 49" fill="none" xmlns="http://www.w3.org/2000/svg">
<path d="M44.3268 46.6V48H25.9168V46.6H30.0468L25.3568 36.87H11.2168L7.1568 46.6H12.6868V48H0.716797V46.6H5.4068L21.4368 8.09996H23.1868L40.9668 46.6H44.3268ZM11.8468 35.4H24.6568L17.7968 21.12L11.8468 35.4Z" fill="black"/>
<path d="M65.2973 48H47.7973V46.6H51.2973V17.2H47.7973V15.8H61.7973V24.13C62.2173 21.8433 62.9639 19.9766 64.0373 18.53C65.1573 17.0833 66.3706 16.1266 67.6773 15.66C69.0306 15.1933 70.3139 14.96 71.5273 14.96C72.7873 14.96 73.9773 15.1933 75.0973 15.66C76.2639 16.08 77.1273 16.9666 77.6873 18.32C78.2473 19.6266 78.2706 20.9566 77.7573 22.31C77.2439 23.6166 76.3339 24.55 75.0273 25.11C73.7673 25.67 72.6006 25.74 71.5273 25.32C70.4539 24.9 69.6839 24.34 69.2173 23.64C68.7506 22.8933 68.4239 22.1933 68.2373 21.54C67.7706 19.8133 67.1406 18.95 66.3473 18.95C65.4606 18.95 64.4806 20.49 63.4073 23.57C62.3339 26.6033 61.7973 29.8233 61.7973 33.23V46.6H65.2973V48Z" fill="black"/>
<path d="M94.5152 17.2V34.28C94.5152 38.2933 94.6785 40.7433 95.0052 41.63C95.3318 42.47 95.6818 43.1933 96.0552 43.8C96.7552 45.0133 97.9685 45.62 99.6952 45.62C101.468 45.62 102.705 45.3866 103.405 44.92V46.32C101.165 47.9066 98.7152 48.7 96.0552 48.7C92.1352 48.7 89.1485 47.7666 87.0952 45.9C85.0418 44.0333 84.0152 40.6966 84.0152 35.89V17.2H78.8352V15.8H84.0152C86.2552 15.4266 88.2385 14.3533 89.9652 12.58C91.6918 10.76 92.8818 8.26329 93.5352 5.08996H94.5152V15.8H102.635V17.2H94.5152Z" fill="black"/>
<path d="M140.878 46.6C140.411 47.0666 139.525 47.4866 138.218 47.86C136.911 48.1866 135.395 48.35 133.668 48.35C129.841 48.35 127.438 47.2066 126.458 44.92C124.125 47.3466 120.555 48.56 115.748 48.56C113.181 48.56 111.058 47.9766 109.378 46.81C107.745 45.5966 106.928 43.8233 106.928 41.49C106.928 38.3633 108.141 35.96 110.568 34.28C112.995 32.5533 117.241 31.34 123.308 30.64L126.108 30.29V26.86C126.108 22.8 125.805 20.07 125.198 18.67C124.591 17.27 123.378 16.57 121.558 16.57C119.785 16.57 118.641 16.8266 118.128 17.34C117.615 17.8066 117.428 18.3666 117.568 19.02C117.708 19.6266 117.941 20.4433 118.268 21.47C118.595 22.4966 118.758 23.3133 118.758 23.92C118.758 25.3666 118.245 26.6033 117.218 27.63C116.238 28.61 115.025 29.1 113.578 29.1C112.178 29.1 110.965 28.61 109.938 27.63C108.911 26.6033 108.398 25.3666 108.398 23.92C108.398 21.54 109.611 19.51 112.038 17.83C114.511 16.1033 118.175 15.24 123.028 15.24C127.928 15.24 131.405 16.1966 133.458 18.11C135.558 20.0233 136.608 23.4066 136.608 28.26V40.86C136.608 43.3333 136.911 44.8966 137.518 45.55C138.125 46.1566 139.245 46.2733 140.878 45.9V46.6ZM116.658 40.09C116.891 41.8633 117.545 43.24 118.618 44.22C119.691 45.1533 120.928 45.62 122.328 45.62C123.775 45.62 125.035 44.92 126.108 43.52V31.62L123.588 31.97C121.441 32.25 119.691 33.0666 118.338 34.42C117.031 35.7733 116.471 37.6633 116.658 40.09Z" fill="black"/>
<path d="M159.073 46.6H162.573V48H145.073V46.6H148.573V17.2H145.773V15.8H159.073V46.6ZM159.703 6.55996C159.703 8.23996 159.096 9.68662 157.883 10.9C156.716 12.0666 155.269 12.65 153.543 12.65C151.863 12.65 150.416 12.0666 149.203 10.9C147.989 9.68662 147.383 8.23996 147.383 6.55996C147.383 4.83329 147.989 3.36329 149.203 2.14996C150.416 0.936623 151.863 0.329956 153.543 0.329956C155.269 0.329956 156.716 0.936623 157.883 2.14996C159.096 3.36329 159.703 4.83329 159.703 6.55996Z" fill="black"/>
<path d="M191.645 48V44.29C190.758 45.55 189.358 46.6233 187.445 47.51C185.578 48.35 183.548 48.77 181.355 48.77C173.048 48.77 168.895 44.2666 168.895 35.26V17.2H165.395V15.8H179.395V36.8C179.395 40.1133 179.885 42.47 180.865 43.87C181.845 45.27 183.315 45.97 185.275 45.97C187.888 45.97 190.011 44.57 191.645 41.77V17.2H188.145V15.8H202.145V46.6H205.645V48H191.645Z" fill="black"/>
<path d="M226.311 47.44C231.164 47.44 233.591 46.11 233.591 43.45C233.591 41.9566 232.751 40.7433 231.071 39.81C229.391 38.83 227.361 38.0366 224.981 37.43C222.601 36.8233 220.244 36.1233 217.911 35.33C215.624 34.5366 213.711 33.2766 212.171 31.55C210.678 29.8233 210.071 27.56 210.351 24.76C210.631 21.96 212.054 19.65 214.621 17.83C217.234 16.01 220.431 15.1 224.211 15.1C228.038 15.1 231.118 15.7066 233.451 16.92C235.784 18.1333 237.091 19.7666 237.371 21.82C237.558 23.08 237.348 24.2466 236.741 25.32C236.181 26.3933 235.224 26.9533 233.871 27C232.564 27.0466 231.468 26.6966 230.581 25.95C229.741 25.2033 229.344 24.34 229.391 23.36C229.438 22.38 229.811 21.5166 230.511 20.77C231.211 19.9766 231.561 19.3466 231.561 18.88C231.561 18.0866 230.791 17.5033 229.251 17.13C227.758 16.71 226.008 16.5 224.001 16.5C222.041 16.5 220.431 16.9433 219.171 17.83C217.911 18.7166 217.281 19.8133 217.281 21.12C217.281 22.4266 218.051 23.5466 219.591 24.48C221.178 25.4133 223.091 26.1833 225.331 26.79C227.571 27.35 229.788 28.0033 231.981 28.75C234.221 29.45 236.111 30.5933 237.651 32.18C239.238 33.7666 240.031 35.7733 240.031 38.2C240.031 41.42 238.888 44.01 236.601 45.97C234.314 47.8833 230.861 48.84 226.241 48.84C221.621 48.84 217.864 48.14 214.971 46.74C212.124 45.34 210.561 43.5433 210.281 41.35C210.094 40.09 210.304 38.9233 210.911 37.85C211.518 36.7766 212.474 36.2166 213.781 36.17C215.088 36.1233 216.161 36.4733 217.001 37.22C217.888 37.9666 218.308 38.83 218.261 39.81C218.214 40.79 217.841 41.6766 217.141 42.47C216.441 43.2166 216.091 43.8233 216.091 44.29C216.091 45.2233 217.164 45.9933 219.311 46.6C221.504 47.16 223.838 47.44 226.311 47.44Z" fill="black"/>
</svg>
