<svg width="25" height="25" viewBox="0 0 25 25" fill="none" xmlns="http://www.w3.org/2000/svg">
<path d="M7.92498 14.4964L7.57143 14.85L6.86432 14.1429L7.21787 13.7893L7.92498 14.4964ZM12.5 9.21429L12.1464 8.86073L12.5 8.50718L12.8536 8.86073L12.5 9.21429ZM17.7821 13.7893L18.1357 14.1429L17.4286 14.85L17.075 14.4964L17.7821 13.7893ZM7.21787 13.7893L12.1464 8.86073L12.8536 9.56784L7.92498 14.4964L7.21787 13.7893ZM12.8536 8.86073L17.7821 13.7893L17.075 14.4964L12.1464 9.56784L12.8536 8.86073ZM23.5 12.5C23.5 6.42487 18.5751 1.5 12.5 1.5V0.5C19.1274 0.499998 24.5 5.87258 24.5 12.5H23.5ZM12.5 23.5C18.5751 23.5 23.5 18.5751 23.5 12.5H24.5C24.5 19.1274 19.1274 24.5 12.5 24.5V23.5ZM1.5 12.5C1.5 18.5751 6.42487 23.5 12.5 23.5V24.5C5.87259 24.5 0.500001 19.1274 0.5 12.5H1.5ZM0.5 12.5C0.499999 5.87259 5.87258 0.5 12.5 0.5V1.5C6.42487 1.5 1.5 6.42487 1.5 12.5H0.5Z" fill="#C5C5C5"/>
</svg>
