<svg width="25" height="25" viewBox="0 0 25 25" fill="none" xmlns="http://www.w3.org/2000/svg">
<path d="M7.92498 10.5036L7.57143 10.15L6.86432 10.8571L7.21787 11.2107L7.92498 10.5036ZM12.5 15.7857L12.1464 16.1393L12.5 16.4928L12.8536 16.1393L12.5 15.7857ZM17.7821 11.2107L18.1357 10.8571L17.4286 10.15L17.075 10.5036L17.7821 11.2107ZM7.21787 11.2107L12.1464 16.1393L12.8536 15.4322L7.92498 10.5036L7.21787 11.2107ZM12.8536 16.1393L17.7821 11.2107L17.075 10.5036L12.1464 15.4322L12.8536 16.1393ZM23.5 12.5C23.5 18.5751 18.5751 23.5 12.5 23.5V24.5C19.1274 24.5 24.5 19.1274 24.5 12.5H23.5ZM12.5 1.5C18.5751 1.5 23.5 6.42487 23.5 12.5H24.5C24.5 5.87259 19.1274 0.500001 12.5 0.5V1.5ZM1.5 12.5C1.5 6.42487 6.42487 1.5 12.5 1.5V0.5C5.87259 0.499999 0.500001 5.87258 0.5 12.5H1.5ZM0.5 12.5C0.499999 19.1274 5.87258 24.5 12.5 24.5V23.5C6.42487 23.5 1.5 18.5751 1.5 12.5H0.5Z" fill="#C5C5C5"/>
</svg>
