<svg width="81" height="81" viewBox="0 0 81 81" fill="none" xmlns="http://www.w3.org/2000/svg">
<path d="M62.6141 35.55H58.2427C57.9855 35.55 57.7284 35.8072 57.5998 36.0643L55.7998 47.3786C55.7998 47.6358 55.9284 47.7643 56.1855 47.7643H58.4998C58.7569 47.7643 58.8855 47.6358 58.8855 47.3786L59.3998 44.1643C59.3998 43.9072 59.6569 43.6501 60.0427 43.6501H61.4569C64.4141 43.6501 66.0855 42.2358 66.4712 39.4072C66.7284 38.2501 66.4712 37.2215 65.9569 36.5786C65.1855 35.9358 64.0284 35.55 62.6141 35.55ZM63.1284 39.7929C62.8712 41.3358 61.7141 41.3358 60.5569 41.3358H59.7855L60.2998 38.3786C60.2998 38.2501 60.4284 38.1215 60.6855 38.1215H60.9427C61.7141 38.1215 62.4855 38.1215 62.8712 38.6358C63.1284 38.7643 63.1284 39.1501 63.1284 39.7929Z" fill="#7B7B7B"/>
<path d="M31.1141 35.55H26.7427C26.4855 35.55 26.2284 35.8072 26.0998 36.0643L24.2998 47.3786C24.2998 47.6358 24.4284 47.7643 24.6855 47.7643H26.7427C26.9998 47.7643 27.2569 47.5072 27.3855 47.2501L27.8998 44.1643C27.8998 43.9072 28.1569 43.6501 28.5427 43.6501H29.9569C32.9141 43.6501 34.5855 42.2358 34.9712 39.4072C35.2284 38.2501 34.9712 37.2215 34.4569 36.5786C33.6855 35.9358 32.657 35.55 31.1141 35.55ZM31.6284 39.7929C31.3712 41.3358 30.2141 41.3358 29.0569 41.3358H28.4141L28.9284 38.3786C28.9284 38.2501 29.0569 38.1215 29.3141 38.1215H29.5712C30.3427 38.1215 31.1141 38.1215 31.4998 38.6358C31.6284 38.7643 31.7569 39.1501 31.6284 39.7929Z" fill="#7B7B7B"/>
<path d="M44.3565 39.6644H42.2994C42.1708 39.6644 41.9137 39.7929 41.9137 39.9215L41.7851 40.5644L41.6565 40.3072C41.1422 39.6644 40.2422 39.4072 39.2137 39.4072C36.8994 39.4072 34.8422 41.2072 34.4565 43.6501C34.1994 44.9358 34.5851 46.093 35.2279 46.8644C35.8708 47.6358 36.7708 47.893 37.9279 47.893C39.8565 47.893 40.8851 46.7358 40.8851 46.7358L40.7565 47.3787C40.7565 47.6358 40.8851 47.7644 41.1422 47.7644H43.0708C43.3279 47.7644 43.5851 47.5072 43.7137 47.2501L44.8708 40.0501C44.7422 39.9215 44.4851 39.6644 44.3565 39.6644ZM41.3994 43.7787C41.1422 44.9358 40.2422 45.8358 38.9565 45.8358C38.3137 45.8358 37.7994 45.5787 37.5422 45.3215C37.2851 44.9358 37.1565 44.4215 37.1565 43.7787C37.2851 42.6215 38.3137 41.7215 39.4708 41.7215C40.1137 41.7215 40.4994 41.9787 40.8851 42.2358C41.2708 42.6215 41.3994 43.2644 41.3994 43.7787Z" fill="#7B7B7B"/>
<path d="M75.7286 39.6644H73.6714C73.5429 39.6644 73.2857 39.7929 73.2857 39.9215L73.1572 40.5644L73.0286 40.3072C72.5143 39.6644 71.6143 39.4072 70.5857 39.4072C68.2714 39.4072 66.2143 41.2072 65.8286 43.6501C65.5714 44.9358 65.9572 46.093 66.6 46.8644C67.2429 47.6358 68.1429 47.893 69.3 47.893C71.2286 47.893 72.2572 46.7358 72.2572 46.7358L72.1286 47.3787C72.1286 47.6358 72.2572 47.7644 72.5143 47.7644H74.4429C74.7 47.7644 74.9572 47.5072 75.0857 47.2501L76.2429 40.0501C76.1143 39.9215 75.9857 39.6644 75.7286 39.6644ZM72.7714 43.7787C72.5143 44.9358 71.6143 45.8358 70.3286 45.8358C69.6857 45.8358 69.1714 45.5787 68.9143 45.3215C68.6572 44.9358 68.5286 44.4215 68.5286 43.7787C68.6572 42.6215 69.6857 41.7215 70.8429 41.7215C71.4857 41.7215 71.8714 41.9787 72.2572 42.2358C72.7714 42.6215 72.9 43.2644 72.7714 43.7787Z" fill="#7B7B7B"/>
<path d="M55.5426 39.6643H53.3569C53.0997 39.6643 52.9712 39.7929 52.8426 39.9214L50.014 44.2929L48.7283 40.1786C48.5997 39.9214 48.4712 39.7929 48.0854 39.7929H46.0283C45.7711 39.7929 45.6426 40.05 45.6426 40.3072L47.9569 47.1214L45.7711 50.2072C45.6426 50.4643 45.7711 50.85 46.0283 50.85H48.0854C48.3426 50.85 48.4712 50.7214 48.5997 50.5929L55.6712 40.4357C56.0569 40.05 55.7997 39.6643 55.5426 39.6643Z" fill="#7B7B7B"/>
<path d="M78.1711 35.9358L76.3711 47.5072C76.3711 47.7643 76.4997 47.8929 76.7568 47.8929H78.5568C78.814 47.8929 79.0711 47.6358 79.1997 47.3786L80.9997 36.0643C80.9997 35.8072 80.8711 35.6786 80.614 35.6786H78.5568C78.4282 35.55 78.2997 35.6786 78.1711 35.9358Z" fill="#7B7B7B"/>
<path d="M14.7857 31.6928C13.8857 30.6642 12.2143 30.1499 9.9 30.1499H3.47143C3.08571 30.1499 2.7 30.5356 2.57143 30.9213L0 47.7642C0 48.1499 0.257143 48.407 0.514286 48.407H4.5L5.52857 42.107V42.3642C5.65714 41.9785 6.04286 41.5928 6.42857 41.5928H8.35714C12.0857 41.5928 14.9143 40.0499 15.8143 35.807C15.8143 35.6785 15.8143 35.5499 15.8143 35.4213C15.6857 35.4213 15.6857 35.4213 15.8143 35.4213C15.9429 33.7499 15.6857 32.7213 14.7857 31.6928Z" fill="#7B7B7B"/>
<path d="M15.6857 35.4214C15.6857 35.55 15.6857 35.6785 15.6857 35.8071C14.7857 40.1785 11.9571 41.5928 8.22854 41.5928H6.29997C5.91426 41.5928 5.52854 41.9785 5.39997 42.3642L4.11426 50.2071C4.11426 50.4642 4.24283 50.7214 4.62854 50.7214H7.9714C8.35711 50.7214 8.74283 50.4642 8.74283 50.0785V49.95L9.38569 45.9642V45.7071C9.38569 45.3214 9.7714 45.0642 10.1571 45.0642H10.6714C13.8857 45.0642 16.4571 43.7785 17.1 39.9214C17.3571 38.3785 17.2285 36.9642 16.4571 36.0642C16.3285 35.8071 16.0714 35.55 15.6857 35.4214Z" fill="#7B7B7B"/>
<path d="M14.7855 35.0356C14.6569 35.0356 14.5283 34.907 14.3997 34.907C14.2712 34.907 14.1426 34.907 14.014 34.7785C13.4997 34.6499 12.9855 34.6499 12.3426 34.6499H7.32832C7.19975 34.6499 7.07118 34.6499 6.94261 34.7785C6.68546 34.907 6.55689 35.1642 6.55689 35.4213L5.52832 42.107V42.3642C5.65689 41.9785 6.04261 41.5928 6.42832 41.5928H8.35689C12.0855 41.5928 14.914 40.0499 15.814 35.807C15.814 35.6785 15.814 35.5499 15.9426 35.4213C15.6855 35.2928 15.5569 35.1642 15.2997 35.1642C14.914 35.0356 14.914 35.0356 14.7855 35.0356Z" fill="#7B7B7B"/>
</svg>
