<svg width="22" height="26" viewBox="0 0 22 26" fill="none" xmlns="http://www.w3.org/2000/svg">
<circle cx="11.3592" cy="7.77054" r="6.15604" stroke="#38B2AC" stroke-width="1.5" stroke-linecap="round" stroke-linejoin="round"/>
<path fill-rule="evenodd" clip-rule="evenodd" d="M1.59377 21.2C1.59212 20.7673 1.6889 20.3398 1.87681 19.95C2.46647 18.7707 4.1293 18.1456 5.50911 17.8626C6.50422 17.6502 7.51308 17.5083 8.52816 17.438C10.4075 17.2729 12.2977 17.2729 14.1771 17.438C15.1921 17.5092 16.2009 17.651 17.1961 17.8626C18.5759 18.1456 20.2388 18.7117 20.8284 19.95C21.2063 20.7447 21.2063 21.6672 20.8284 22.4619C20.2388 23.7002 18.5759 24.2663 17.1961 24.5375C16.2022 24.7587 15.193 24.9045 14.1771 24.9739C12.6474 25.1035 11.1107 25.1272 9.57775 25.0446C9.22396 25.0446 8.88196 25.0446 8.52816 24.9739C7.51607 24.9054 6.51071 24.7595 5.5209 24.5375C4.1293 24.2663 2.47826 23.7002 1.87681 22.4619C1.68986 22.0676 1.59317 21.6365 1.59377 21.2Z" stroke="black" stroke-width="1.5" stroke-linecap="round" stroke-linejoin="round"/>
</svg>
