<svg width="38" height="32" viewBox="0 0 38 32" fill="none" xmlns="http://www.w3.org/2000/svg">
<path d="M13.7813 1C14.3336 1 14.7813 1.44772 14.7813 2L14.7813 8.5C14.7813 9.05229 14.2667 9.5 13.6319 9.5C12.9971 9.5 12.4825 9.05229 12.4825 8.5L12.4825 2C12.4825 1.44772 12.9302 1 13.4825 1L13.7813 1Z" fill="#38B2AC"/>
<path d="M5.58594 19C5.58594 18.4477 6.10055 18 6.73536 18H14.7813C15.4162 18 15.9308 18.4477 15.9308 19V20C15.9308 20.5523 15.4162 21 14.7813 21H6.73536C6.10055 21 5.58594 20.5523 5.58594 20V19Z" fill="#38B2AC"/>
<path d="M28.7239 5C29.2762 5 29.7239 5.44772 29.7239 6V9C29.7239 9.55228 29.2093 10 28.5744 10C27.9396 10 27.425 9.55228 27.425 9V6C27.425 5.44772 27.8727 5 28.425 5H28.7239Z" fill="#38B2AC"/>
<path d="M4.78348 1V0.5C4.50734 0.5 4.28348 0.723858 4.28348 1H4.78348ZM20.8549 1H21.3549C21.3549 0.723858 21.1311 0.5 20.8549 0.5V1ZM2.64062 15V14.5C2.36448 14.5 2.14062 14.7239 2.14062 15H2.64062ZM33.7121 15H34.2121C34.2121 14.7239 33.9882 14.5 33.7121 14.5V15ZM20.8549 5V4.5C20.5788 4.5 20.3549 4.72386 20.3549 5H20.8549ZM32.6406 5H33.1406C33.1406 4.72386 32.9168 4.5 32.6406 4.5V5ZM4.78348 1.5H20.8549V0.5H4.78348V1.5ZM20.3549 1V13H21.3549V1H20.3549ZM18.7121 14.5H6.92634V15.5H18.7121V14.5ZM5.28348 13V1H4.28348V13H5.28348ZM6.92634 14.5C5.98596 14.5 5.28348 13.7965 5.28348 13H4.28348C4.28348 14.4126 5.49978 15.5 6.92634 15.5V14.5ZM20.3549 13C20.3549 13.7965 19.6524 14.5 18.7121 14.5V15.5C20.1386 15.5 21.3549 14.4126 21.3549 13H20.3549ZM33.2121 15V28H34.2121V15H33.2121ZM3.14062 28V15H2.14062V28H3.14062ZM4.78348 29.5C3.84311 29.5 3.14062 28.7965 3.14062 28H2.14062C2.14062 29.4126 3.35692 30.5 4.78348 30.5V29.5ZM33.2121 28C33.2121 28.7965 32.5096 29.5 31.5692 29.5V30.5C32.9958 30.5 34.2121 29.4126 34.2121 28H33.2121ZM20.8549 5.5H32.6406V4.5H20.8549V5.5ZM32.1406 5V13H33.1406V5H32.1406ZM30.4978 14.5H22.9978V15.5H30.4978V14.5ZM21.3549 13V5H20.3549V13H21.3549ZM22.9978 14.5C22.0574 14.5 21.3549 13.7965 21.3549 13H20.3549C20.3549 14.4126 21.5712 15.5 22.9978 15.5V14.5ZM32.1406 13C32.1406 13.7965 31.4381 14.5 30.4978 14.5V15.5C31.9243 15.5 33.1406 14.4126 33.1406 13H32.1406ZM2.64062 15.5H20.8549V14.5H2.64062V15.5ZM20.8549 15.5H33.7121V14.5H20.8549V15.5ZM31.5692 29.5H20.8549V30.5H31.5692V29.5ZM20.8549 29.5H4.78348V30.5H20.8549V29.5ZM20.3549 15V30H21.3549V15H20.3549Z" fill="#2C7A7B"/>
</svg>
