<svg width="54" height="54" viewBox="0 0 54 54" fill="none" xmlns="http://www.w3.org/2000/svg">
<path d="M27 54C41.9117 54 54 41.9117 54 27C54 12.0883 41.9117 0 27 0C12.0883 0 0 12.0883 0 27C0 41.9117 12.0883 54 27 54Z" fill="#4D76A1"/>
<path fill-rule="evenodd" clip-rule="evenodd" d="M25.9786 38.8419H28.0978C28.0978 38.8419 28.7379 38.7717 29.0647 38.4194C29.3655 38.0959 29.3559 37.4885 29.3559 37.4885C29.3559 37.4885 29.3145 34.645 30.6343 34.2263C31.9352 33.8138 33.6058 36.9745 35.3765 38.1898C36.7155 39.1095 37.733 38.9079 37.733 38.9079L42.4675 38.8419C42.4675 38.8419 44.9443 38.6894 43.7699 36.742C43.6736 36.5827 43.086 35.3015 40.2497 32.6688C37.281 29.9133 37.6786 30.359 41.2546 25.5927C43.4325 22.69 44.3032 20.9178 44.0313 20.1588C43.7718 19.4359 42.1701 19.627 42.1701 19.627L36.8392 19.6602C36.8392 19.6602 36.444 19.6063 36.1509 19.7815C35.8645 19.9533 35.6802 20.3537 35.6802 20.3537C35.6802 20.3537 34.8365 22.6 33.7112 24.5103C31.3374 28.5411 30.3883 28.7539 30.0004 28.5036C29.0979 27.9203 29.3232 26.1602 29.3232 24.9097C29.3232 21.0035 29.9157 19.3748 28.1695 18.9532C27.59 18.8131 27.1636 18.7207 25.6817 18.7058C23.7796 18.686 22.1696 18.7115 21.258 19.1582C20.6516 19.4552 20.1838 20.1169 20.4687 20.155C20.821 20.2021 21.619 20.3701 22.0421 20.9462C22.5883 21.6894 22.5691 23.3585 22.5691 23.3585C22.5691 23.3585 22.8829 27.9568 21.8361 28.5281C21.1175 28.9199 20.1318 28.12 18.0155 24.4631C16.9311 22.5899 16.1124 20.5193 16.1124 20.5193C16.1124 20.5193 15.9546 20.1323 15.673 19.9254C15.3313 19.6746 14.8538 19.5947 14.8538 19.5947L9.78816 19.6279C9.78816 19.6279 9.0277 19.6491 8.74855 19.9798C8.5002 20.2738 8.72882 20.8822 8.72882 20.8822C8.72882 20.8822 12.6947 30.1607 17.1853 34.8366C21.3028 39.1235 25.9786 38.8419 25.9786 38.8419Z" fill="white"/>
</svg>
