<svg width="31" height="18" viewBox="0 0 31 18" fill="none" xmlns="http://www.w3.org/2000/svg">
<path d="M15.3252 17.75C19.6483 17.75 18.1068 15.1857 18.4405 14.4483C18.4355 13.8977 18.4306 13.368 18.4505 13.046C18.7244 13.1183 19.3706 13.4252 20.7054 14.6408C22.7661 16.5892 23.2928 17.75 24.9575 17.75H28.0218C28.993 17.75 29.4985 17.3732 29.7513 17.057C29.9953 16.7513 30.2344 16.2147 29.9729 15.3793C29.2893 13.368 25.3024 9.89483 25.0546 9.5285C25.092 9.46083 25.1518 9.371 25.1829 9.32433H25.1804C25.9673 8.35017 28.9706 4.13383 29.4126 2.44683C29.4138 2.4445 29.4151 2.441 29.4151 2.4375C29.6542 1.6675 29.435 1.16817 29.2084 0.885833C28.8672 0.4635 28.3244 0.25 27.591 0.25H24.5267C23.5007 0.25 22.7225 0.734167 22.3291 1.61733C21.6704 3.1865 19.8201 6.4135 18.4331 7.55567C18.3907 5.9375 18.4194 4.702 18.4418 3.78383C18.4866 1.993 18.631 0.25 16.6475 0.25H11.8314C10.5887 0.25 9.39964 1.52167 10.6871 3.03133C11.8127 4.35433 11.0918 5.09167 11.3346 8.762C10.3883 7.81117 8.70486 5.24333 7.51452 1.9615C7.18083 1.07367 6.6753 0.251167 5.25212 0.251167H2.18786C0.945222 0.251167 0.203125 0.885833 0.203125 1.94867C0.203125 4.33567 5.84231 17.75 15.3252 17.75ZM5.25212 2.00117C5.52231 2.00117 5.54971 2.00117 5.75017 2.53433C6.96915 5.89783 9.70346 10.8748 11.7006 10.8748C13.201 10.8748 13.201 9.434 13.201 8.8915L13.1998 4.5725C13.1176 3.14333 12.5623 2.43167 12.1974 2L16.5654 2.00467C16.5679 2.0245 16.5405 6.78217 16.5778 7.93483C16.5778 9.57167 17.9649 10.5097 20.1302 8.45633C22.415 6.04017 23.995 2.42817 24.0585 2.28117C24.1519 2.07117 24.2329 2 24.5267 2H27.591H27.6034C27.6022 2.0035 27.6022 2.007 27.6009 2.0105C27.3208 3.2355 24.5554 7.13917 23.6302 8.35133C23.6153 8.37 23.6016 8.38983 23.5879 8.40967C23.1807 9.03267 22.8495 9.721 23.6439 10.6893H23.6452C23.7174 10.771 23.9054 10.9623 24.1793 11.2283C25.031 12.052 27.9521 14.8683 28.211 15.9883C28.0392 16.014 27.8525 15.9953 24.9575 16.0012C24.3412 16.0012 23.8593 15.1378 22.0203 13.3995C20.3667 11.8922 19.2934 11.2762 18.316 11.2762C16.4184 11.2762 16.5566 12.7193 16.5741 14.4647C16.5803 16.357 16.5679 15.7585 16.5815 15.8775C16.4707 15.9183 16.1532 16 15.3252 16C7.42487 16 2.28 4.2505 2.08202 2.00467C2.15051 1.99883 3.09307 2.00233 5.25212 2.00117Z" fill="#38B2AC"/>
</svg>
