<svg width="22" height="22" viewBox="0 0 22 22" fill="none" xmlns="http://www.w3.org/2000/svg">
<g clip-path="url(#clip0)">
<path d="M16.0482 13.1147L16.04 13.1835C14.0242 12.1788 13.8134 12.045 13.553 12.4355C13.3725 12.7059 12.8463 13.3192 12.6877 13.5007C12.5273 13.6794 12.3678 13.6932 12.0955 13.5694C11.8205 13.4319 10.9378 13.1432 9.89279 12.2082C9.07879 11.4794 8.53246 10.5857 8.37113 10.3107C8.10254 9.84683 8.66446 9.78083 9.17596 8.81283C9.26763 8.62033 9.22088 8.46908 9.15304 8.33249C9.08429 8.19499 8.53704 6.84749 8.30788 6.31033C8.08788 5.77499 7.86146 5.84283 7.69188 5.84283C7.16388 5.79699 6.77796 5.80433 6.43788 6.15816C4.95838 7.78433 5.33146 9.46183 6.59738 11.2457C9.08521 14.5017 10.4107 15.1012 12.8344 15.9335C13.4889 16.1416 14.0856 16.1122 14.5577 16.0444C15.0839 15.961 16.1775 15.3835 16.4057 14.7372C16.6395 14.091 16.6395 13.5547 16.5707 13.431C16.5029 13.3072 16.3232 13.2385 16.0482 13.1147Z" fill="#686868"/>
<path d="M18.81 3.161C11.7618 -3.65258 0.0971667 1.28917 0.0925833 10.9013C0.0925833 12.8227 0.595833 14.6963 1.55467 16.3509L0 21.9994L5.80708 20.4851C13.0533 24.3992 21.9963 19.2017 22 10.9068C22 7.9955 20.8633 5.25558 18.7962 3.19675L18.81 3.161ZM20.1685 10.8766C20.163 17.8735 12.4823 22.2432 6.4075 18.6719L6.0775 18.4757L2.64 19.3695L3.56125 16.0282L3.34217 15.6845C-0.438167 9.66658 3.905 1.80159 11.066 1.80159C13.4988 1.80159 15.7823 2.75034 17.5019 4.46908C19.2207 6.17317 20.1685 8.45658 20.1685 10.8766Z" fill="#686868"/>
</g>
<defs>
<clipPath id="clip0">
<rect width="22" height="22" fill="white"/>
</clipPath>
</defs>
</svg>
