<svg width="54" height="54" viewBox="0 0 54 54" fill="none" xmlns="http://www.w3.org/2000/svg">
<g clip-path="url(#clip0)">
<path d="M27 53.999C41.9117 53.999 54 41.9107 54 26.999C54 12.0873 41.9117 -0.000976562 27 -0.000976562C12.0883 -0.000976562 0 12.0873 0 26.999C0 41.9107 12.0883 53.999 27 53.999Z" fill="#FF0000"/>
<path d="M33.7192 11H29.1727C24.5665 11 19.9186 14.4014 19.9186 22.0004C19.9186 25.9365 21.5868 29.0021 24.6448 30.7455L19.0478 40.8762C18.7825 41.3553 18.7755 41.8983 19.0292 42.3287C19.2769 42.749 19.7298 43 20.2403 43H23.0716C23.7148 43 24.2163 42.6891 24.4568 42.1445L29.7046 31.88H30.0876V41.7207C30.0876 42.4142 30.6728 43 31.3655 43H33.8389C34.6157 43 35.158 42.4576 35.158 41.681V12.4002C35.1581 11.5758 34.5665 11 33.7192 11ZM30.0876 27.3204H29.412C26.7923 27.3204 25.2284 25.182 25.2284 21.6002C25.2284 17.1465 27.204 15.5597 29.053 15.5597H30.0876V27.3204Z" fill="white"/>
</g>
<defs>
<clipPath id="clip0">
<rect width="54" height="54" fill="white"/>
</clipPath>
</defs>
</svg>
