<svg width="22" height="21" viewBox="0 0 22 21" fill="none" xmlns="http://www.w3.org/2000/svg">
<path fill-rule="evenodd" clip-rule="evenodd" d="M12.1027 0.696073C13.1724 0.172464 14.1056 -1.42754e-06 15.5532 1.62125e-05C19.2579 0.0153584 22 3.13984 22 7.11988C22 10.1578 20.3062 13.0923 17.1512 15.9299C15.4951 17.4193 13.3807 18.8933 11.8664 19.6775L11 20.1261L10.1336 19.6775C8.61932 18.8933 6.50489 17.4193 4.84884 15.9299C1.69383 13.0923 0 10.1578 0 7.11988C0 3.09727 2.71644 0 6.45455 0C7.85028 0 8.83132 0.188775 9.92181 0.728134C10.3015 0.915918 10.6582 1.13866 10.99 1.39576C11.335 1.12339 11.7066 0.88993 12.1027 0.696073ZM15.8137 14.4429C18.5862 11.9493 20 9.4999 20 7.11988C20 4.18896 18.0882 2.01053 15.5491 2.00001C14.387 2 13.7459 2.11849 12.9819 2.49243C12.512 2.72244 12.0951 3.03295 11.7315 3.42755L11.0023 4.2187L10.2665 3.43377C9.91088 3.05437 9.50001 2.75077 9.03514 2.52084C8.24813 2.13159 7.56428 2 6.45455 2C3.88364 2 2 4.14772 2 7.11988C2 9.4999 3.41382 11.9493 6.18628 14.4429C7.69782 15.8023 9.64104 17.1609 11 17.8737C12.359 17.1609 14.3022 15.8023 15.8137 14.4429Z" fill="#38B2AC"/>
</svg>
