<svg width="20" height="21" viewBox="0 0 20 21" fill="none" xmlns="http://www.w3.org/2000/svg">
<path fill-rule="evenodd" clip-rule="evenodd" d="M5.65337 19.1268C5.29332 19.6546 4.68712 20.0011 4 20.0011H2C0.89543 20.0011 0 19.1057 0 18.0011V9.00114C0 7.89657 0.89543 7.00114 2 7.00114H4C4.19817 7.00114 4.38961 7.02996 4.57035 7.08364C5.64448 5.51921 9.25548 1.57563 10.2203 0.374129L10.5205 0.000244279H11C11.6148 0.000152039 12.1423 0.0462722 12.7483 0.22273C14.0919 0.613962 15 1.52824 15 3.00024C15 3.52036 14.9079 4.07488 14.7382 4.69037C14.626 5.0976 14.4872 5.5088 14.2971 6.01915C14.2392 6.17461 14.0072 6.78282 13.9548 6.92452C13.9452 6.95046 13.9359 6.9757 13.927 7.00024H17C18.8696 7.00024 20 8.31776 20 10.0002C20 15.9438 18.7551 20.0002 16 20.0002L9.0344 19.9997C8.34085 20.0123 7.50544 19.9198 6.66312 19.6184C6.29522 19.4868 5.95674 19.323 5.65337 19.1268ZM6 16.0002C6 16.9025 6.45197 17.4187 7.33688 17.7353C7.91062 17.9406 8.52537 18.0087 8.96307 18.0009C8.97035 18.0007 8.97035 18.0007 9 18.0002H16C17.0151 18.0002 18 14.791 18 10.0002C18 9.36013 17.6912 9.00024 17 9.00024H13C11.8055 9.00024 11.5555 8.0766 11.8047 7.07656C11.8633 6.84131 11.9489 6.58241 12.079 6.23079C12.1358 6.07709 12.3689 5.46584 12.4229 5.32091C12.5944 4.86061 12.7161 4.49982 12.8101 4.15885C12.9359 3.70256 13 3.31683 13 3.00024C13 2.54927 12.7622 2.30984 12.1891 2.14298C11.9484 2.07287 11.7114 2.03423 11.46 2.01537C9.91427 3.8631 6.40664 7.70168 6.14171 8.32023C6.04443 8.54735 6 8.76005 6 9.00024V16.0002ZM2 9.00114V18.0011H4V9.00114H2Z" fill="black"/>
</svg>
