<svg width="20" height="21" viewBox="0 0 20 21" fill="none" xmlns="http://www.w3.org/2000/svg">
<path fill-rule="evenodd" clip-rule="evenodd" d="M4.57086 12.9186C4.38997 12.9724 4.19836 13.0013 4 13.0013H2C0.89543 13.0013 0 12.1058 0 11.0013V2.00127C0 0.896701 0.89543 0.00127036 2 0.00127036H4C4.68685 0.00127036 5.29284 0.347509 5.65294 0.874971C5.95642 0.678638 6.29505 0.514784 6.66312 0.38309C7.50544 0.0817179 8.34085 -0.0108189 8.99893 0.000983064C9.01507 0.00132466 11.3488 0.00142041 16 0.00127036C18.7551 0.00127036 20 4.0577 20 10.0013C20 11.6838 18.8696 13.0013 17 13.0013H13.927C13.9359 13.0258 13.9452 13.0511 13.9548 13.077C14.0072 13.2187 14.2392 13.8269 14.2971 13.9824C14.4872 14.4927 14.626 14.9039 14.7382 15.3111C14.9079 15.9266 15 16.4812 15 17.0013C15 18.4733 14.0919 19.3876 12.7483 19.7788C12.1423 19.9552 11.6148 20.0014 11.0077 20.0013H10.5205L10.2203 19.6274C9.25563 18.4261 5.64562 14.4835 4.57086 12.9186ZM6 11.0013C6 11.2415 6.04443 11.4542 6.14171 11.6813C6.40664 12.2998 9.91427 16.1384 11.46 17.9861C11.7114 17.9673 11.9484 17.9286 12.1891 17.8585C12.7622 17.6917 13 17.4522 13 17.0013C13 16.6847 12.9359 16.299 12.8101 15.8427C12.7161 15.5017 12.5944 15.1409 12.4229 14.6806C12.3689 14.5357 12.1358 13.9244 12.079 13.7707C11.9489 13.4191 11.8633 13.1602 11.8047 12.925C11.5555 11.9249 11.8055 11.0013 13 11.0013H17C17.6912 11.0013 18 10.6414 18 10.0013C18 5.21053 17.0151 2.00127 16 2.00127C13.9322 2.00127 13.9322 2.00127 8.9656 2.00068C8.52537 1.99281 7.91062 2.06091 7.33688 2.26619C6.45197 2.5828 6 3.09904 6 4.00127V11.0013ZM2 2.00127V11.0013H4V2.00127H2Z" fill="black"/>
</svg>
