<svg width="59" height="59" viewBox="0 0 59 59" fill="none" xmlns="http://www.w3.org/2000/svg">
<g clip-path="url(#clip0)">
<path d="M21.6338 37.9755L24.6306 21.1184H29.3132L26.41 37.9755H21.6338Z" fill="#7B7B7B"/>
<path d="M21.6338 37.9755L25.4735 21.1184H29.3132L26.41 37.9755H21.6338Z" fill="#7B7B7B"/>
<path d="M43.3608 21.3056C42.4243 20.931 40.9259 20.5564 39.0529 20.5564C34.3703 20.5564 30.9989 22.8977 30.9989 26.2691C30.9989 28.7977 33.3402 30.1088 35.2132 30.9516C37.0862 31.7945 37.6481 32.3564 37.6481 33.1056C37.6481 34.2294 36.1497 34.7913 34.8386 34.7913C32.9656 34.7913 31.9354 34.5104 30.3433 33.8548L29.6878 33.5739L29.0322 37.4135C30.156 37.8818 32.2164 38.35 34.3703 38.35C39.3338 38.35 42.6116 36.0088 42.6116 32.45C42.6116 30.4834 41.3941 28.985 38.5846 27.7675C36.8989 26.9246 35.8687 26.4564 35.8687 25.6135C35.8687 24.8643 36.7116 24.1151 38.5846 24.1151C40.1767 24.1151 41.3005 24.3961 42.1433 24.7707L42.6116 24.958L43.3608 21.3056Z" fill="#7B7B7B"/>
<path d="M43.3608 21.3056C42.4243 20.931 40.9259 20.5564 39.0529 20.5564C34.3703 20.5564 31.8418 22.8977 31.8418 26.2691C31.8418 28.7977 33.3402 30.1088 35.2132 30.9516C37.0862 31.7945 37.6481 32.3564 37.6481 33.1056C37.6481 34.2294 36.1497 34.7913 34.8386 34.7913C32.9656 34.7913 31.9354 34.5104 30.3433 33.8548L29.6878 33.5739L29.0322 37.4135C30.156 37.8818 32.2164 38.35 34.3703 38.35C39.3338 38.35 42.6116 36.0088 42.6116 32.45C42.6116 30.4834 41.3941 28.985 38.5846 27.7675C36.8989 26.9246 35.8687 26.4564 35.8687 25.6135C35.8687 24.8643 36.7116 24.1151 38.5846 24.1151C40.1767 24.1151 41.3005 24.3961 42.1433 24.7707L42.6116 24.958L43.3608 21.3056Z" fill="#7B7B7B"/>
<path d="M51.4138 21.1184C50.29 21.1184 49.4471 21.2121 48.9789 22.3359L41.9551 37.9755H47.0122L47.9487 35.166H53.9424L54.5043 37.9755H58.9995L55.0662 21.1184H51.4138ZM49.2598 32.3565C49.5408 31.5136 51.1328 27.393 51.1328 27.393C51.1328 27.393 51.5074 26.3629 51.7884 25.7073L52.0694 27.2994C52.0694 27.2994 53.0059 31.5136 53.1932 32.4502H49.2598V32.3565Z" fill="#7B7B7B"/>
<path d="M52.5376 21.1184C51.4138 21.1184 50.5709 21.2121 50.1027 22.3359L41.9551 37.9755H47.0122L47.9487 35.166H53.9424L54.5043 37.9755H58.9995L55.0662 21.1184H52.5376ZM49.2598 32.3565C49.6344 31.42 51.1328 27.393 51.1328 27.393C51.1328 27.393 51.5074 26.3629 51.7884 25.7073L52.0694 27.2994C52.0694 27.2994 53.0059 31.5136 53.1932 32.4502H49.2598V32.3565Z" fill="#7B7B7B"/>
<path d="M13.017 32.9183L12.5487 30.4833C11.7059 27.6738 8.98999 24.5833 5.99316 23.0849L10.2074 38.069H15.2646L22.8503 21.2119H17.7932L13.017 32.9183Z" fill="#7B7B7B"/>
<path d="M13.017 32.9183L12.5487 30.4833C11.7059 27.6738 8.98999 24.5833 5.99316 23.0849L10.2074 38.069H15.2646L22.8503 21.2119H18.7297L13.017 32.9183Z" fill="#7B7B7B"/>
<path d="M0 21.1184L0.842857 21.3057C6.83651 22.7105 10.9571 26.2692 12.5492 30.4835L10.8635 22.5232C10.5825 21.3994 9.73968 21.1184 8.70952 21.1184H0Z" fill="#7B7B7B"/>
<path d="M0 21.1184C5.99365 22.5232 10.9571 26.1756 12.5492 30.3898L10.9571 23.7406C10.6762 22.6168 9.73968 21.9613 8.70952 21.9613L0 21.1184Z" fill="#7B7B7B"/>
<path d="M0 21.1184C5.99365 22.5232 10.9571 26.1756 12.5492 30.3898L11.4254 26.7375C11.1444 25.6136 10.7698 24.4898 9.45873 24.0216L0 21.1184Z" fill="#7B7B7B"/>
<path d="M17.6996 32.3563L14.5155 29.1722L13.0171 32.7309L12.6425 30.3896C11.7996 27.5801 9.08374 24.4896 6.08691 22.9912L10.3012 37.9753H15.3583L17.6996 32.3563Z" fill="#7B7B7B"/>
<path d="M26.409 37.9754L22.382 33.8547L21.6328 37.9754H26.409Z" fill="#7B7B7B"/>
<path d="M37.1789 32.1689C37.5535 32.5435 37.7408 32.8245 37.6471 33.1991C37.6471 34.3229 36.1487 34.8848 34.8376 34.8848C32.9646 34.8848 31.9344 34.6039 30.3424 33.9483L29.6868 33.6674L29.0312 37.507C30.1551 37.9753 32.2154 38.4435 34.3693 38.4435C37.3662 38.4435 39.8011 37.6007 41.2059 36.1023L37.1789 32.1689Z" fill="#7B7B7B"/>
<path d="M42.6104 37.9753H47.0119L47.9484 35.1658H53.9421L54.504 37.9753H58.9992L57.4072 31.1388L51.7881 25.707L52.0691 27.2054C52.0691 27.2054 53.0056 31.4197 53.1929 32.3562H49.2596C49.6342 31.4197 51.1326 27.3927 51.1326 27.3927C51.1326 27.3927 51.5072 26.3626 51.7881 25.707" fill="#7B7B7B"/>
</g>
<defs>
<clipPath id="clip0">
<rect width="59" height="59" fill="white"/>
</clipPath>
</defs>
</svg>
